<?xml version="1.0" encoding="UTF-8"?>
<svg version="1.1" xmlns="http://www.w3.org/2000/svg" width="24" height="24">
<path d="M0 0 C0.66 0 1.32 0 2 0 C3.45781334 4.37344001 3.0598032 8.39515357 3 13 C6.3 13 9.6 13 13 13 C12.979375 11.411875 12.95875 9.82375 12.9375 8.1875 C12.89664697 5.04181692 12.99503148 3.01490557 14 0 C14.66 0 15.32 0 16 0 C16.05459773 1.56210161 16.09306101 3.12477089 16.125 4.6875 C16.14820312 5.55761719 16.17140625 6.42773438 16.1953125 7.32421875 C16 10 16 10 14 15 C10.04 15 6.08 15 2 15 C0.27421725 10.68554312 -0.24081253 9.03046991 -0.125 4.6875 C-0.10695312 3.80449219 -0.08890625 2.92148438 -0.0703125 2.01171875 C-0.04710937 1.34785156 -0.02390625 0.68398437 0 0 Z " fill="#FFFFFF" transform="translate(4,8)"/>
<path d="M0 0 C1.27875 -0.061875 2.5575 -0.12375 3.875 -0.1875 C4.95394531 -0.23970703 4.95394531 -0.23970703 6.0546875 -0.29296875 C6.69664063 -0.19628906 7.33859375 -0.09960938 8 0 C8.66 0.99 9.32 1.98 10 3 C12.05925139 3.72382467 12.05925139 3.72382467 14 4 C14 4.66 14 5.32 14 6 C7.4 6 0.8 6 -6 6 C-6 5.34 -6 4.68 -6 4 C-4.02 3.67 -2.04 3.34 0 3 C0 2.01 0 1.02 0 0 Z M2 2 C6 3 6 3 6 3 Z " fill="#FFFFFF" transform="translate(8,1)"/>
<path d="M0 0 C1.98 0 3.96 0 6 0 C6 0.99 6 1.98 6 3 C4.02 3 2.04 3 0 3 C0 2.01 0 1.02 0 0 Z " fill="#FFFFFF" transform="translate(9,11)"/>
<path d="M0 0 C1.65 0.33 3.3 0.66 5 1 C4.67 1.66 4.34 2.32 4 3 C2.35 2.67 0.7 2.34 -1 2 C-0.67 1.34 -0.34 0.68 0 0 Z " fill="#FFFFFF" transform="translate(10,15)"/>
</svg>
