<svg width="219" height="111" viewBox="0 0 219 111" fill="none" xmlns="http://www.w3.org/2000/svg">
<g filter="url(#filter0_d_958_20786)">
<rect x="50" y="45" width="119" height="40" rx="20" fill="#101010" shape-rendering="crispEdges"/>
<path d="M88.3335 60.916H83.3335" stroke="white" stroke-width="1.5" stroke-miterlimit="10" stroke-linecap="round" stroke-linejoin="round"/>
<path d="M74.9998 60.916H71.6665" stroke="white" stroke-width="1.5" stroke-miterlimit="10" stroke-linecap="round" stroke-linejoin="round"/>
<path d="M78.3332 63.8333C79.944 63.8333 81.2498 62.5275 81.2498 60.9167C81.2498 59.3058 79.944 58 78.3332 58C76.7223 58 75.4165 59.3058 75.4165 60.9167C75.4165 62.5275 76.7223 63.8333 78.3332 63.8333Z" stroke="white" stroke-width="1.5" stroke-miterlimit="10" stroke-linecap="round" stroke-linejoin="round"/>
<path d="M88.3333 70.084H85" stroke="white" stroke-width="1.5" stroke-miterlimit="10" stroke-linecap="round" stroke-linejoin="round"/>
<path d="M76.6665 70.084H71.6665" stroke="white" stroke-width="1.5" stroke-miterlimit="10" stroke-linecap="round" stroke-linejoin="round"/>
<path d="M81.6667 72.9993C83.2775 72.9993 84.5833 71.6935 84.5833 70.0827C84.5833 68.4719 83.2775 67.166 81.6667 67.166C80.0558 67.166 78.75 68.4719 78.75 70.0827C78.75 71.6935 80.0558 72.9993 81.6667 72.9993Z" stroke="white" stroke-width="1.5" stroke-miterlimit="10" stroke-linecap="round" stroke-linejoin="round"/>
<g filter="url(#filter1_d_958_20786)">
<circle cx="88" cy="57.5" r="4" fill="#FF4C5E"/>
</g>
<path d="M106.928 69.5V59.7H112.717V61.408H108.636V63.396H112.045V65.104H108.636V69.5H106.928ZM114.087 69.5V59.7H115.795V69.5H114.087ZM117.968 69.5V59.7H119.676V67.792H123.757V69.5H117.968ZM131.804 59.7V61.408H128.808V69.5H127.1V61.408H124.104V59.7H131.804ZM133.342 69.5V59.7H139.488V61.408H135.05V63.396H138.571V65.104H135.05V67.792H139.488V69.5H133.342ZM141.256 69.5V59.7H145.015C145.547 59.7 146.027 59.833 146.457 60.099C146.886 60.365 147.227 60.722 147.479 61.17C147.731 61.6133 147.857 62.1057 147.857 62.647C147.857 63.0903 147.775 63.4987 147.612 63.872C147.453 64.2407 147.229 64.5603 146.94 64.831C146.655 65.1017 146.326 65.307 145.953 65.447L148.298 69.5H146.331L144.063 65.601H142.964V69.5H141.256ZM142.964 63.893H144.819C145.061 63.893 145.283 63.8323 145.484 63.711C145.684 63.5897 145.845 63.4263 145.967 63.221C146.088 63.0157 146.149 62.787 146.149 62.535C146.149 62.2783 146.088 62.0473 145.967 61.842C145.845 61.6367 145.684 61.4733 145.484 61.352C145.283 61.2307 145.061 61.17 144.819 61.17H142.964V63.893Z" fill="white"/>
</g>
<defs>
<filter id="filter0_d_958_20786" x="0" y="0" width="219" height="140" filterUnits="userSpaceOnUse" color-interpolation-filters="sRGB">
<feFlood flood-opacity="0" result="BackgroundImageFix"/>
<feColorMatrix in="SourceAlpha" type="matrix" values="0 0 0 0 0 0 0 0 0 0 0 0 0 0 0 0 0 0 127 0" result="hardAlpha"/>
<feOffset dy="5"/>
<feGaussianBlur stdDeviation="25"/>
<feComposite in2="hardAlpha" operator="out"/>
<feColorMatrix type="matrix" values="0 0 0 0 0 0 0 0 0 0 0 0 0 0 0 0 0 0 0.15 0"/>
<feBlend mode="normal" in2="BackgroundImageFix" result="effect1_dropShadow_958_20786"/>
<feBlend mode="normal" in="SourceGraphic" in2="effect1_dropShadow_958_20786" result="shape"/>
</filter>
<filter id="filter1_d_958_20786" x="80" y="52.5" width="14" height="14" filterUnits="userSpaceOnUse" color-interpolation-filters="sRGB">
<feFlood flood-opacity="0" result="BackgroundImageFix"/>
<feColorMatrix in="SourceAlpha" type="matrix" values="0 0 0 0 0 0 0 0 0 0 0 0 0 0 0 0 0 0 127 0" result="hardAlpha"/>
<feOffset dx="-1" dy="2"/>
<feGaussianBlur stdDeviation="1.5"/>
<feComposite in2="hardAlpha" operator="out"/>
<feColorMatrix type="matrix" values="0 0 0 0 0 0 0 0 0 0 0 0 0 0 0 0 0 0 0.1 0"/>
<feBlend mode="normal" in2="BackgroundImageFix" result="effect1_dropShadow_958_20786"/>
<feBlend mode="normal" in="SourceGraphic" in2="effect1_dropShadow_958_20786" result="shape"/>
</filter>
</defs>
</svg>
