<svg width="24" height="25" viewBox="0 0 24 25" fill="none" xmlns="http://www.w3.org/2000/svg">
<path d="M2.26936 3.57919C2.11516 3.60284 1.96691 4.16738 1.66889 4.46147C1.45095 4.67372 1.17889 4.66044 1.03438 4.92285C0.979517 5.02088 0.997289 5.18822 0.935035 5.34889C0.813452 5.67023 0.385015 5.69895 0.385015 6.04907C0.383525 6.42718 0.742314 6.49939 1.05289 6.76767C1.29531 6.98362 1.31905 7.13249 1.61255 7.23714C1.86316 7.32194 2.23599 7.04478 2.5718 7.14429C2.84758 7.22613 3.11144 7.28507 3.17375 7.56663C3.22855 7.82607 3.17002 8.22846 2.83571 8.18206C2.72301 8.16952 2.2345 8.00589 1.63409 8.06927C0.909813 8.15111 0.0832658 8.38616 0.00249471 9.18888C-0.0419879 9.63771 0.516174 10.1669 1.05513 10.0593C1.42796 9.9863 1.25157 9.54931 1.45467 9.33701C1.72077 9.06508 3.22855 10.2863 4.63034 10.2863C5.22043 10.2863 5.65924 10.1382 6.09518 9.68416C6.13588 9.64951 6.18558 9.57508 6.24858 9.57063C6.30791 9.57508 6.41167 9.63327 6.44577 9.65835C7.57476 10.5605 8.42797 12.3699 12.577 12.3913C13.1604 12.3942 13.8253 12.6714 14.3679 13.1637C14.852 13.6089 15.1352 14.3009 15.4101 15.0034C15.8253 16.0574 16.5696 17.0826 17.6977 18.2235C17.7593 18.2847 18.6881 19.0026 18.7622 19.0564C18.7741 19.0637 18.8423 19.2259 18.8186 19.3165C18.7912 20.0005 18.6911 21.9898 20.1826 22.0797C20.5473 22.0981 20.4516 21.8431 20.4516 21.6677C20.4509 21.3213 20.3871 20.9771 20.571 20.6226C20.8223 20.1347 20.038 19.9098 20.061 18.8551C20.0773 18.0687 19.4131 18.2028 19.0758 17.6036C18.8816 17.2565 18.7089 17.0723 18.7215 16.6477C18.7971 14.2583 18.21 12.6883 17.9172 12.3029C17.6889 12.0117 17.4999 11.896 17.7089 11.7611C18.9535 10.9438 19.236 10.1831 19.236 10.1831C19.8979 8.63608 20.4932 7.22312 21.3138 6.60113C21.4791 6.47283 21.9031 6.15816 22.1633 6.03431C22.929 5.67536 23.3323 5.45797 23.5547 5.24271C23.9068 4.90148 24.1848 4.19023 23.8475 3.75906C23.4279 3.2269 22.7022 3.64924 22.382 3.83789C20.0936 5.18822 19.7563 7.57028 18.9639 8.93827C18.3316 10.0313 17.3034 10.8339 16.3842 10.8995C15.6948 10.9504 14.9521 10.8118 14.2122 10.489C12.4131 9.7048 11.4287 8.69211 11.1967 8.51303C10.7133 8.14227 6.96094 4.47988 3.92091 4.33027C3.92091 4.33027 3.54365 3.57924 3.44873 3.56671C3.22632 3.53867 2.99879 4.01554 2.83571 4.07088C2.68225 4.12167 2.4243 3.55411 2.26936 3.57919Z" fill="#101010"/>
</svg>
