<svg width="24" height="25" viewBox="0 0 24 25" fill="none" xmlns="http://www.w3.org/2000/svg">
<path fill-rule="evenodd" clip-rule="evenodd" d="M11.695 11.103L14.3388 12.8129L18.559 11.1566C19.9833 10.6758 21.8137 10.1413 24 9.5C18.6104 9.98107 14.5425 10.4617 11.695 11.103ZM9.66118 12.9199L7.32208 12.2786C6.00005 12.6528 4.72885 13.2403 3.55948 13.9886C2.38974 14.7364 1.47469 15.5917 0.864411 16.5H4.83068C5.13582 16.0189 5.64427 15.4845 6.30519 14.9502C7.27106 14.0955 8.38998 13.4542 9.66118 12.9199ZM12.4579 13.9348L10.4748 13.2401C10.017 13.4542 9.45788 13.7212 8.79658 14.2019C7.88135 14.8432 7.06776 15.6447 6.35601 16.5H10.0678C10.5762 15.6447 11.3898 14.79 12.4579 13.9348ZM7.93236 9.5H0L7.93217 11.7443C11.4406 12.8661 14.6948 14.1489 17.6954 15.4845L7.93236 9.5Z" fill="#101010"/>
</svg>
