<?xml version="1.0" encoding="UTF-8"?>
<svg version="1.1" xmlns="http://www.w3.org/2000/svg" width="20" height="20">
<path d="M0 0 C0.99 0.33 1.98 0.66 3 1 C3.6875 3.0625 3.6875 3.0625 4 5 C6.97 5.495 6.97 5.495 10 6 C9.125 9.875 9.125 9.875 8 11 C7.63239269 13.32817964 7.29758419 15.6618385 7 18 C5.7625 17.814375 4.525 17.62875 3.25 17.4375 C0.23720423 17.05288777 -2.10010827 16.9125406 -5 18 C-5.12375 16.9275 -5.2475 15.855 -5.375 14.75 C-5.89643936 11.62136385 -6.40088254 9.66519576 -8 7 C-5 5 -5 5 -2 5 C-1.34 3.35 -0.68 1.7 0 0 Z " fill="#FCD240" transform="translate(9,1)"/>
</svg>
