<svg width="80" height="88" viewBox="0 0 80 88" fill="none" xmlns="http://www.w3.org/2000/svg">
<path d="M0 20C0 8.95431 8.95431 0 20 0H80V88H20C8.95431 88 0 79.0457 0 68V20Z" fill="#FF4C5E"/>
<path d="M49 37.9805C45.67 37.6505 42.32 37.4805 38.98 37.4805C37 37.4805 35.02 37.5805 33.04 37.7805L31 37.9805" stroke="white" stroke-width="1.5" stroke-linecap="round" stroke-linejoin="round"/>
<path d="M36.5 36.97L36.72 35.66C36.88 34.71 37 34 38.69 34H41.31C43 34 43.13 34.75 43.28 35.67L43.5 36.97" stroke="white" stroke-width="1.5" stroke-linecap="round" stroke-linejoin="round"/>
<path d="M46.8499 41.1406L46.1999 51.2106C46.0899 52.7806 45.9999 54.0006 43.2099 54.0006H36.7899C33.9999 54.0006 33.9099 52.7806 33.7999 51.2106L33.1499 41.1406" stroke="white" stroke-width="1.5" stroke-linecap="round" stroke-linejoin="round"/>
<path d="M38.3301 48.5H41.6601" stroke="white" stroke-width="1.5" stroke-linecap="round" stroke-linejoin="round"/>
<path d="M37.5 44.5H42.5" stroke="white" stroke-width="1.5" stroke-linecap="round" stroke-linejoin="round"/>
</svg>
