<?xml version="1.0" encoding="UTF-8"?>
<svg version="1.1" xmlns="http://www.w3.org/2000/svg" width="80" height="88">
<path d="M0 0 C26.4 0 52.8 0 80 0 C80 29.04 80 58.08 80 88 C53.6 88 27.2 88 0 88 C0 58.96 0 29.92 0 0 Z " fill="#FF4C5E" transform="translate(0,0)"/>
<path d="M0 0 C1.98 0 3.96 0 6 0 C6.33 1.32 6.66 2.64 7 4 C8.98 4 10.96 4 13 4 C13 4.66 13 5.32 13 6 C12.01 6.495 12.01 6.495 11 7 C11.02320312 7.59167969 11.04640625 8.18335938 11.0703125 8.79296875 C11.17371429 13.32049003 11.17952152 16.89737126 9 21 C8 22 8 22 5.53125 22.1328125 C4.03078125 22.12894531 4.03078125 22.12894531 2.5 22.125 C1.4996875 22.12757812 0.499375 22.13015625 -0.53125 22.1328125 C-3 22 -3 22 -4 21 C-4.28528471 17.37733706 -4.44912228 13.75469566 -4.62109375 10.125 C-4.74613281 9.09375 -4.87117188 8.0625 -5 7 C-5.66 6.67 -6.32 6.34 -7 6 C-7 5.34 -7 4.68 -7 4 C-5.02 4 -3.04 4 -1 4 C-0.67 2.68 -0.34 1.36 0 0 Z " fill="#FF6978" transform="translate(37,33)"/>
<path d="M0 0 C0.99 1.485 0.99 1.485 2 3 C2.53625 3.680625 3.0725 4.36125 3.625 5.0625 C5 7 5 7 5 9 C7.93720508 10.52299523 10.9168649 11.80100302 14 13 C14 13.33 14 13.66 14 14 C9.38 14 4.76 14 0 14 C0 9.38 0 4.76 0 0 Z " fill="#000000" transform="translate(0,74)"/>
<path d="M0 0 C4.62 0 9.24 0 14 0 C13.01 0.66 12.02 1.32 11 2 C10.319375 2.53625 9.63875 3.0725 8.9375 3.625 C7 5 7 5 5 5 C3.47700477 7.93720508 2.19899698 10.9168649 1 14 C0.67 14 0.34 14 0 14 C0 9.38 0 4.76 0 0 Z " fill="#000000" transform="translate(0,0)"/>
<path d="M0 0 C0.33 0 0.66 0 1 0 C1.98248524 4.0527516 2.08159574 7.83861737 2 12 C5.3 12 8.6 12 12 12 C12.33 8.04 12.66 4.08 13 0 C13.33 0 13.66 0 14 0 C14.05389087 1.95803507 14.09274217 3.91648909 14.125 5.875 C14.14820313 6.96554688 14.17140625 8.05609375 14.1953125 9.1796875 C14 12 14 12 12 14 C9.43359375 14.23046875 9.43359375 14.23046875 6.4375 14.1875 C5.44621094 14.18105469 4.45492187 14.17460938 3.43359375 14.16796875 C1 14 1 14 0 13 C-0.07258946 10.81360547 -0.08373783 8.62499611 -0.0625 6.4375 C-0.05347656 5.23996094 -0.04445312 4.04242188 -0.03515625 2.80859375 C-0.02355469 1.88175781 -0.01195312 0.95492187 0 0 Z " fill="#FFD8DC" transform="translate(33,41)"/>
<path d="M0 0 C1.98 0 3.96 0 6 0 C6.33 1.32 6.66 2.64 7 4 C8.65 4 10.3 4 12 4 C12 4.33 12 4.66 12 5 C6.06 5 0.12 5 -6 5 C-6 4.67 -6 4.34 -6 4 C-4.35 4 -2.7 4 -1 4 C-0.67 2.68 -0.34 1.36 0 0 Z " fill="#FFF9FA" transform="translate(37,33)"/>
<path d="M0 0 C1.4540625 0.0309375 1.4540625 0.0309375 2.9375 0.0625 C2.9375 1.3825 2.9375 2.7025 2.9375 4.0625 C0.9575 4.0625 -1.0225 4.0625 -3.0625 4.0625 C-3.3925 3.0725 -3.7225 2.0825 -4.0625 1.0625 C-3.0625 0.0625 -3.0625 0.0625 0 0 Z " fill="#FFA5AE" transform="translate(40.0625,32.9375)"/>
</svg>
